<svg width="18" xmlns="http://www.w3.org/2000/svg" height="18" id="screenshot-2f79909f-506c-804c-8006-a6fc6916e89d" viewBox="1669 145 18 18" style="-webkit-print-color-adjust::exact" xmlns:xlink="http://www.w3.org/1999/xlink" fill="none" version="1.1">
  <g id="shape-2f79909f-506c-804c-8006-a6fc6916e89d">
    <g class="fills" id="fills-2f79909f-506c-804c-8006-a6fc6916e89d">
      <path d="M1685.5999755859375,163L1679.300048828125,156.70001220703125C1678.800048828125,157.10000610351562,1678.2249755859375,157.41668701171875,1677.574951171875,157.64999389648438C1676.925048828125,157.88333129882812,1676.2333984375,158,1675.5,158C1673.683349609375,158,1672.1458740234375,157.37081909179688,1670.887451171875,156.11248779296875C1669.629150390625,154.85418701171875,1669,153.31668090820312,1669,151.5C1669,149.68331909179688,1669.629150390625,148.14581298828125,1670.887451171875,146.88751220703125C1672.1458740234375,145.62918090820312,1673.683349609375,145,1675.5,145C1677.316650390625,145,1678.8541259765625,145.62918090820312,1680.112548828125,146.88751220703125C1681.370849609375,148.14581298828125,1682,149.68331909179688,1682,151.5C1682,152.23333740234375,1681.88330078125,152.92498779296875,1681.6500244140625,153.57501220703125C1681.4166259765625,154.22500610351562,1681.0999755859375,154.79998779296875,1680.699951171875,155.29998779296875L1687,161.60000610351562L1685.5999755859375,163ZM1675.5,156C1676.75,156,1677.8125,155.5625,1678.6875,154.6875C1679.5625,153.8125,1680,152.75,1680,151.5C1680,150.25,1679.5625,149.1875,1678.6875,148.3125C1677.8125,147.4375,1676.75,147,1675.5,147C1674.25,147,1673.1875,147.4375,1672.3125,148.3125C1671.4375,149.1875,1671,150.25,1671,151.5C1671,152.75,1671.4375,153.8125,1672.3125,154.6875C1673.1875,155.5625,1674.25,156,1675.5,156Z" style="fill:#111111">
      </path>
    </g>
  </g>
</svg>
