<?xml version="1.0" encoding="UTF-8" standalone="no"?>
<!-- Created with Inkscape (http://www.inkscape.org/) -->

<svg
   width="70.308823mm"
   height="70.308823mm"
   viewBox="0 0 70.308823 70.308821"
   version="1.1"
   id="svg1"
   xml:space="preserve"
   inkscape:version="1.4.3 (unknown)"
   sodipodi:docname="var-a.svg"
   xmlns:inkscape="http://www.inkscape.org/namespaces/inkscape"
   xmlns:sodipodi="http://sodipodi.sourceforge.net/DTD/sodipodi-0.dtd"
   xmlns:xlink="http://www.w3.org/1999/xlink"
   xmlns="http://www.w3.org/2000/svg"
   xmlns:svg="http://www.w3.org/2000/svg"><sodipodi:namedview
     id="namedview1"
     pagecolor="#ffffff"
     bordercolor="#000000"
     borderopacity="0.25"
     inkscape:showpageshadow="2"
     inkscape:pageopacity="0.0"
     inkscape:pagecheckerboard="0"
     inkscape:deskcolor="#d1d1d1"
     inkscape:document-units="mm"
     inkscape:zoom="1.4919669"
     inkscape:cx="177.61788"
     inkscape:cy="158.18045"
     inkscape:window-width="1707"
     inkscape:window-height="989"
     inkscape:window-x="0"
     inkscape:window-y="0"
     inkscape:window-maximized="1"
     inkscape:current-layer="layer1" /><defs
     id="defs1"><linearGradient
       id="linearGradient1"
       inkscape:collect="always"><stop
         style="stop-color:#5583f6;stop-opacity:1;"
         offset="0"
         id="stop1" /><stop
         style="stop-color:#11329a;stop-opacity:1;"
         offset="1"
         id="stop2" /></linearGradient><radialGradient
       inkscape:collect="always"
       xlink:href="#linearGradient1"
       id="radialGradient2"
       cx="162.39125"
       cy="141.38885"
       fx="162.39125"
       fy="141.38885"
       r="35.154411"
       gradientUnits="userSpaceOnUse"
       gradientTransform="translate(-38.741395,-67.416128)" /><filter
       style="color-interpolation-filters:sRGB"
       inkscape:label="Drop Shadow"
       id="filter14"
       x="-0.14908807"
       y="-0.066131435"
       width="1.2324834"
       height="1.1716268"><feFlood
         result="flood"
         in="SourceGraphic"
         flood-opacity="0.400000"
         flood-color="rgb(0,0,0)"
         id="feFlood13" /><feGaussianBlur
         result="blur"
         in="SourceGraphic"
         stdDeviation="0.700000"
         id="feGaussianBlur13" /><feOffset
         result="offset"
         in="blur"
         dx="1.000000"
         dy="1.000000"
         id="feOffset13" /><feComposite
         result="comp1"
         operator="in"
         in="flood"
         in2="offset"
         id="feComposite13" /><feComposite
         result="comp2"
         operator="over"
         in="SourceGraphic"
         in2="comp1"
         id="feComposite14" /></filter><filter
       style="color-interpolation-filters:sRGB"
       inkscape:label="Drop Shadow"
       id="filter18"
       x="-0.14908807"
       y="-0.066131432"
       width="1.2324834"
       height="1.1716268"><feFlood
         result="flood"
         in="SourceGraphic"
         flood-opacity="0.200000"
         flood-color="rgb(0,0,0)"
         id="feFlood17" /><feGaussianBlur
         result="blur"
         in="SourceGraphic"
         stdDeviation="0.700000"
         id="feGaussianBlur17" /><feOffset
         result="offset"
         in="blur"
         dx="1.000000"
         dy="1.000000"
         id="feOffset17" /><feComposite
         result="comp1"
         operator="in"
         in="flood"
         in2="offset"
         id="feComposite17" /><feComposite
         result="comp2"
         operator="over"
         in="SourceGraphic"
         in2="comp1"
         id="feComposite18" /></filter><radialGradient
       inkscape:collect="always"
       xlink:href="#linearGradient1"
       id="radialGradient2-4"
       cx="162.39125"
       cy="141.38885"
       fx="162.39125"
       fy="141.38885"
       r="35.154411"
       gradientUnits="userSpaceOnUse"
       gradientTransform="translate(-38.741396,13.476028)" /><filter
       style="color-interpolation-filters:sRGB"
       inkscape:label="Drop Shadow"
       id="filter18-3"
       x="-0.14908807"
       y="-0.066131435"
       width="1.2324834"
       height="1.1716268"><feFlood
         result="flood"
         in="SourceGraphic"
         flood-opacity="0.200000"
         flood-color="rgb(0,0,0)"
         id="feFlood17-9" /><feGaussianBlur
         result="blur"
         in="SourceGraphic"
         stdDeviation="0.700000"
         id="feGaussianBlur17-2" /><feOffset
         result="offset"
         in="blur"
         dx="1.000000"
         dy="1.000000"
         id="feOffset17-8" /><feComposite
         result="comp1"
         operator="in"
         in="flood"
         in2="offset"
         id="feComposite17-3" /><feComposite
         result="comp2"
         operator="over"
         in="SourceGraphic"
         in2="comp1"
         id="feComposite18-0" /></filter><filter
       style="color-interpolation-filters:sRGB"
       inkscape:label="Drop Shadow"
       id="filter26"
       x="-0.091519051"
       y="-0.047874581"
       width="1.1488892"
       height="1.1242459"><feFlood
         result="flood"
         in="SourceGraphic"
         flood-opacity="0.200000"
         flood-color="rgb(0,0,0)"
         id="feFlood25" /><feGaussianBlur
         result="blur"
         in="SourceGraphic"
         stdDeviation="0.700000"
         id="feGaussianBlur25" /><feOffset
         result="offset"
         in="blur"
         dx="-1.000000"
         dy="1.000000"
         id="feOffset25" /><feComposite
         result="comp1"
         operator="in"
         in="flood"
         in2="offset"
         id="feComposite25" /><feComposite
         result="comp2"
         operator="over"
         in="SourceGraphic"
         in2="comp1"
         id="feComposite26" /></filter><filter
       style="color-interpolation-filters:sRGB"
       inkscape:label="Drop Shadow"
       id="filter26-0"
       x="-0.091519051"
       y="-0.047874581"
       width="1.1488892"
       height="1.1242459"><feFlood
         result="flood"
         in="SourceGraphic"
         flood-opacity="0.200000"
         flood-color="rgb(0,0,0)"
         id="feFlood25-1" /><feGaussianBlur
         result="blur"
         in="SourceGraphic"
         stdDeviation="0.700000"
         id="feGaussianBlur25-0" /><feOffset
         result="offset"
         in="blur"
         dx="-1.000000"
         dy="1.000000"
         id="feOffset25-1" /><feComposite
         result="comp1"
         operator="in"
         in="flood"
         in2="offset"
         id="feComposite25-3" /><feComposite
         result="comp2"
         operator="over"
         in="SourceGraphic"
         in2="comp1"
         id="feComposite26-7" /></filter><radialGradient
       inkscape:collect="always"
       xlink:href="#linearGradient1"
       id="radialGradient2-4-7"
       cx="162.39125"
       cy="141.38885"
       fx="162.39125"
       fy="141.38885"
       r="35.154411"
       gradientUnits="userSpaceOnUse"
       gradientTransform="translate(-40.324195,94.439877)" /><clipPath
       clipPathUnits="userSpaceOnUse"
       id="clipPath1"><rect
         style="fill:#000000;stroke-width:0.508"
         id="rect2"
         width="70.308823"
         height="70.308823"
         x="97.792686"
         y="215.07785" /></clipPath></defs><g
     inkscape:label="图层 1"
     inkscape:groupmode="layer"
     id="layer1"
     transform="translate(-69.845588,-194.53711)"><g
       id="g30"
       transform="translate(-27.947098,-20.54074)"
       clip-path="url(#clipPath1)"><g
         id="g27"><g
           id="g18"><circle
             style="fill:url(#radialGradient2);stroke-width:7.59712;stroke-linecap:round;stroke-linejoin:round;paint-order:fill markers stroke"
             id="path1"
             cx="132.9471"
             cy="87.849205"
             r="35.154411" /><g
             id="g6"
             transform="matrix(1.1316126,0,0,1.1316126,-65.821006,-95.00265)"
             style="filter:url(#filter18)"><rect
               style="fill:#ffffff;fill-opacity:1;stroke:#ffffff;stroke-width:7.04114;stroke-linecap:round;stroke-linejoin:round;stroke-dasharray:none;stroke-opacity:1;paint-order:fill markers stroke"
               id="rect4"
               width="23.304222"
               height="4.9897184"
               x="158.09764"
               y="157.43495"
               transform="matrix(0.88369466,0,0,0.88369466,21.512221,19.756084)" /><g
               id="g5"
               transform="translate(3.369642,5.5262129)"><path
                 style="fill:#ffffff;fill-opacity:1;stroke:none;stroke-width:7.99999;stroke-linecap:round;stroke-linejoin:round;stroke-dasharray:none;stroke-opacity:1;paint-order:fill markers stroke"
                 d="m 171.57885,153.18182 c 0,0 -0.6849,-4.10501 -1.05376,-7.63213 -0.14435,-1.38036 0.17899,-4.19703 3.80547,-1.68951 4.35763,3.01307 14.69207,10.31092 14.69207,10.31092 0,0 1.3367,0.99302 0.86545,1.61175 -0.44927,0.58986 -17.67172,-0.2805 -17.67172,-0.2805 z"
                 id="path4"
                 sodipodi:nodetypes="csscscc" /><path
                 style="fill:#ffffff;fill-opacity:1;stroke:none;stroke-width:7.99999;stroke-linecap:round;stroke-linejoin:round;stroke-dasharray:none;stroke-opacity:1;paint-order:fill markers stroke"
                 d="m 171.57885,157.93617 c 0,0 -0.6849,4.10501 -1.05376,7.63213 -0.14436,1.38036 0.17899,4.19703 3.80547,1.68951 4.35763,-3.01307 14.69207,-10.31092 14.69207,-10.31092 0,0 1.3367,-0.99302 0.86545,-1.61175 -0.44927,-0.58986 -17.694,0.0577 -17.694,0.0577 z"
                 id="path4-1"
                 sodipodi:nodetypes="csscscc" /></g></g></g></g><g
         id="g29"
         transform="translate(0,0.29937618)"><circle
           style="fill:url(#radialGradient2-4);stroke-width:7.59712;stroke-linecap:round;stroke-linejoin:round;paint-order:fill markers stroke"
           id="path1-9"
           cx="132.9471"
           cy="168.74136"
           r="35.154411" /><path
           style="font-weight:bold;font-size:57.1168px;line-height:1;font-family:'寒蝉圆黑体';-inkscape-font-specification:'寒蝉圆黑体 Bold';letter-spacing:4.28377px;writing-mode:tb-rl;fill:#ffffff;stroke-width:25.9049;stroke-linecap:round;stroke-linejoin:round;paint-order:fill markers stroke;filter:url(#filter26)"
           d="m -169.69117,150.45822 c -0.40903,0.16733 -0.84596,0.251 -1.31078,0.251 -0.46482,0 -0.90175,-0.0837 -1.31079,-0.251 -0.44622,-0.20452 -0.82737,-0.46482 -1.14345,-0.78089 l -11.15562,-11.15563 c -0.29749,-0.29748 -0.54849,-0.66933 -0.75301,-1.11556 -0.18593,-0.40904 -0.27889,-0.85526 -0.27889,-1.33867 0,-0.48341 0.093,-0.92964 0.27889,-1.33868 0.18593,-0.40904 0.43693,-0.78089 0.75301,-1.11556 0.35326,-0.33467 0.73441,-0.59496 1.14345,-0.78089 0.40904,-0.16734 0.84597,-0.25101 1.31078,-0.25101 0.48341,0 0.92964,0.0837 1.33868,0.25101 0.44623,0.20452 0.82738,0.46482 1.14345,0.78089 l 5.18737,5.18737 v -19.69693 c 0,-0.48342 0.093,-0.92964 0.27889,-1.33868 0.18593,-0.40904 0.43693,-0.7809 0.753,-1.11556 0.31608,-0.33467 0.69723,-0.59497 1.14345,-0.78089 0.40904,-0.16734 0.84597,-0.25101 1.31079,-0.25101 0.46482,0 0.90175,0.0837 1.31078,0.25101 0.44623,0.18592 0.82738,0.44622 1.14346,0.78089 0.31607,0.33466 0.56707,0.70652 0.753,1.11556 0.18593,0.40904 0.27889,0.85526 0.27889,1.33868 v 19.69693 l 5.18737,-5.18737 c 0.31607,-0.31607 0.69722,-0.57637 1.14345,-0.78089 0.40904,-0.16734 0.85526,-0.25101 1.33867,-0.25101 0.46482,0 0.90175,0.0837 1.31079,0.25101 0.40904,0.18593 0.79019,0.44622 1.14345,0.78089 0.31608,0.33467 0.56708,0.70652 0.75301,1.11556 0.18593,0.40904 0.27889,0.85527 0.27889,1.33868 0,0.48341 -0.093,0.92963 -0.27889,1.33867 -0.20452,0.44623 -0.45552,0.81808 -0.75301,1.11556 l -11.15562,11.15563 c -0.35327,0.35326 -0.73442,0.61356 -1.14346,0.78089 z"
           id="text18"
           transform="rotate(-90,-0.68010292,-0.49298801)"
           aria-label="➜"
           sodipodi:nodetypes="ssccccssccscscssscscssscscsccsscccs" /></g><g
         id="g28"
         transform="translate(1.5828094,0.52705893)"><circle
           style="fill:url(#radialGradient2-4-7);stroke-width:7.59712;stroke-linecap:round;stroke-linejoin:round;paint-order:fill markers stroke"
           id="path1-9-2"
           cx="131.36429"
           cy="249.70522"
           r="35.154411" /><path
           style="font-weight:bold;font-size:57.1168px;line-height:1;font-family:'寒蝉圆黑体';-inkscape-font-specification:'寒蝉圆黑体 Bold';letter-spacing:4.28377px;writing-mode:tb-rl;fill:#ffffff;stroke-width:25.9049;stroke-linecap:round;stroke-linejoin:round;paint-order:fill markers stroke;filter:url(#filter26-0)"
           d="m -169.69117,150.45822 c -0.40903,0.16733 -0.84596,0.251 -1.31078,0.251 -0.46482,0 -0.90175,-0.0837 -1.31079,-0.251 -0.44622,-0.20452 -0.82737,-0.46482 -1.14345,-0.78089 l -11.15562,-11.15563 c -0.29749,-0.29748 -0.54849,-0.66933 -0.75301,-1.11556 -0.18593,-0.40904 -0.27889,-0.85526 -0.27889,-1.33867 0,-0.48341 0.093,-0.92964 0.27889,-1.33868 0.18593,-0.40904 0.43693,-0.78089 0.75301,-1.11556 0.35326,-0.33467 0.73441,-0.59496 1.14345,-0.78089 0.40904,-0.16734 0.84597,-0.25101 1.31078,-0.25101 0.48341,0 0.92964,0.0837 1.33868,0.25101 0.44623,0.20452 0.82738,0.46482 1.14345,0.78089 l 5.18737,5.18737 v -19.69693 c 0,-0.48342 0.093,-0.92964 0.27889,-1.33868 0.18593,-0.40904 0.43693,-0.7809 0.753,-1.11556 0.31608,-0.33467 0.69723,-0.59497 1.14345,-0.78089 0.40904,-0.16734 0.84597,-0.25101 1.31079,-0.25101 0.46482,0 0.90175,0.0837 1.31078,0.25101 0.44623,0.18592 0.82738,0.44622 1.14346,0.78089 0.31607,0.33466 0.56707,0.70652 0.753,1.11556 0.18593,0.40904 0.27889,0.85526 0.27889,1.33868 v 19.69693 l 5.18737,-5.18737 c 0.31607,-0.31607 0.69722,-0.57637 1.14345,-0.78089 0.40904,-0.16734 0.85526,-0.25101 1.33867,-0.25101 0.46482,0 0.90175,0.0837 1.31079,0.25101 0.40904,0.18593 0.79019,0.44622 1.14345,0.78089 0.31608,0.33467 0.56708,0.70652 0.75301,1.11556 0.18593,0.40904 0.27889,0.85527 0.27889,1.33868 0,0.48341 -0.093,0.92963 -0.27889,1.33867 -0.20452,0.44623 -0.45552,0.81808 -0.75301,1.11556 l -11.15562,11.15563 c -0.35327,0.35326 -0.73442,0.61356 -1.14346,0.78089 z"
           id="text18-0"
           transform="matrix(0,-1.1879918,1.1879918,0,-27.426704,45.962305)"
           aria-label="➜"
           sodipodi:nodetypes="ssccccssccscscssscscssscscsccsscccs" /></g></g></g></svg>
