<?xml version="1.0" encoding="UTF-8" standalone="no"?>
<!-- Created with Inkscape (http://www.inkscape.org/) -->

<svg
   width="2100"
   height="900"
   viewBox="0 0 555.62498 238.125"
   version="1.1"
   id="svg1"
   inkscape:version="1.4.3 (unknown)"
   sodipodi:docname="nearoute.svg"
   xml:space="preserve"
   inkscape:export-filename="apernet.png"
   inkscape:export-xdpi="96"
   inkscape:export-ydpi="96"
   xmlns:inkscape="http://www.inkscape.org/namespaces/inkscape"
   xmlns:sodipodi="http://sodipodi.sourceforge.net/DTD/sodipodi-0.dtd"
   xmlns="http://www.w3.org/2000/svg"
   xmlns:svg="http://www.w3.org/2000/svg"><sodipodi:namedview
     id="namedview1"
     pagecolor="#ffffff"
     bordercolor="#000000"
     borderopacity="0.25"
     inkscape:showpageshadow="2"
     inkscape:pageopacity="0.0"
     inkscape:pagecheckerboard="0"
     inkscape:deskcolor="#d1d1d1"
     inkscape:document-units="mm"
     inkscape:zoom="0.39289557"
     inkscape:cx="1021.9"
     inkscape:cy="637.574"
     inkscape:window-width="2560"
     inkscape:window-height="1494"
     inkscape:window-x="0"
     inkscape:window-y="0"
     inkscape:window-maximized="1"
     inkscape:current-layer="layer1" /><defs
     id="defs1"><style
       id="style1">.cls-1{fill:#172a88;}.cls-2{fill:#f39800;}</style></defs><g
     inkscape:label="图层 1"
     inkscape:groupmode="layer"
     id="layer1"><g
       id="g1"
       transform="matrix(0.79228365,0,0,0.79228365,66.146,75.003606)"><path
         class="cls-1"
         d="m 342.91,955.51 a 6.74,6.74 0 0 1 -6.84,6.7 h -47.18 a 20.84,20.84 0 0 0 19.69,14.09 26.88,26.88 0 0 0 15.32,-4.52 c 3.14,-2 7.38,-0.13 9,3.15 1.62,3.28 -0.13,7 -3.28,9 -9,6 -16,5.88 -21.06,5.88 a 34.33,34.33 0 1 1 0,-68.66 c 16.57,0.03 34.35,12.07 34.35,34.36 z m -54,-6.84 h 39.52 c -2.87,-9.57 -11.62,-13.95 -19.83,-13.95 a 20.9,20.9 0 0 0 -19.71,13.95 z"
         transform="translate(-173.68,-878.93)"
         id="path1-6" /><path
         class="cls-1"
         d="m 419.48,956.06 v 26.8 a 6.61,6.61 0 0 1 -6.84,6.84 7.21,7.21 0 0 1 -6.57,-6.84 c -5.87,4.92 -12.44,6.84 -20.23,6.84 -19.29,0 -34.6,-14.36 -34.6,-33.64 a 34.38,34.38 0 0 1 34.6,-34.6 c 19.28,0 33.64,15.32 33.64,34.6 z m -13.41,0 c 0,-11.49 -8.75,-21.2 -20.23,-21.2 a 21.49,21.49 0 0 0 -21.2,21.2 c 0,11.49 9.71,20.24 21.2,20.24 a 19.85,19.85 0 0 0 20.23,-20.24 z"
         transform="translate(-173.68,-878.93)"
         id="path2" /><path
         class="cls-1"
         d="m 468.84,928 a 6.86,6.86 0 0 1 -6.84,6.84 20.78,20.78 0 0 0 -20.79,20.79 v 27.49 a 6.77,6.77 0 1 1 -13.54,0 V 955.65 A 34.36,34.36 0 0 1 462,921.32 6.74,6.74 0 0 1 468.84,928 Z"
         transform="translate(-173.68,-878.93)"
         id="path3" /><path
         class="cls-1"
         d="m 468.42,955.51 a 34.33,34.33 0 1 1 34.32,34.33 34.35,34.35 0 0 1 -34.32,-34.33 z m 13.54,0 A 20.79,20.79 0 1 0 502.74,934.72 20.87,20.87 0 0 0 482,955.51 Z"
         transform="translate(-173.68,-878.93)"
         id="path4" /><path
         class="cls-1"
         d="m 600.24,928 v 34.46 a 27.69,27.69 0 0 1 -55.38,0 V 928 a 6.77,6.77 0 0 1 13.54,0 v 34.19 a 14.15,14.15 0 1 0 28.3,0 V 928 a 6.77,6.77 0 0 1 13.54,0 z"
         transform="translate(-173.68,-878.93)"
         id="path5" /><path
         class="cls-1"
         d="M 609.24,921.32 V 894 a 6.77,6.77 0 0 1 13.54,0 v 27.35 h 9.71 a 6.74,6.74 0 0 1 6.84,6.7 6.86,6.86 0 0 1 -6.84,6.84 h -9.71 v 48.28 a 6.77,6.77 0 1 1 -13.54,0 z"
         transform="translate(-173.68,-878.93)"
         id="path6" /><path
         class="cls-1"
         d="m 708,955.51 a 6.74,6.74 0 0 1 -6.84,6.7 H 654 a 20.84,20.84 0 0 0 19.7,14.09 26.84,26.84 0 0 0 15.3,-4.52 c 3.15,-2 7.39,-0.13 9,3.15 1.61,3.28 -0.14,7 -3.29,9 -9,6 -16,5.88 -21.05,5.88 a 34.33,34.33 0 1 1 0,-68.66 c 16.54,0.03 34.34,12.07 34.34,34.36 z m -54,-6.84 h 39.53 C 690.65,939.1 681.9,934.72 673.7,934.72 A 20.91,20.91 0 0 0 654,948.67 Z"
         transform="translate(-173.68,-878.93)"
         id="path7" /><rect
         class="cls-1"
         y="0.83999997"
         width="32.939999"
         height="110.2"
         rx="16.469999"
         id="rect7"
         x="0" /><rect
         class="cls-2"
         x="65.75"
         width="32.939999"
         height="48.02"
         rx="16.469999"
         id="rect8"
         y="0" /><path
         class="cls-1"
         d="m 262.79,986.08 v 0 a 16.53,16.53 0 0 1 -23.16,-2.56 l -62.35,-77 a 16.52,16.52 0 0 1 2.56,-23.15 v 0 a 16.52,16.52 0 0 1 23.16,2.56 l 62.35,77 a 16.52,16.52 0 0 1 -2.56,23.15 z"
         transform="translate(-173.68,-878.93)"
         id="path8" /></g></g></svg>
